<?xml version="1.0" encoding="UTF-8"?>
<svg xmlns="http://www.w3.org/2000/svg" xmlns:xlink="http://www.w3.org/1999/xlink" width="40px" height="40px" viewBox="0 0 40 39" version="1.1">
<g id="surface1">
<path style=" stroke:none;fill-rule:nonzero;fill:rgb(100%,38.431373%,0.392157%);fill-opacity:1;" d="M 15.691406 16.035156 C 17.582031 17.042969 19.460938 13.886719 19.539062 11.601562 C 19.609375 9.308594 18.945312 7.398438 17.859375 6.257812 C 16.769531 5.113281 15.675781 5.175781 14.59375 5.46875 C 13.792969 5.6875 13.15625 6.136719 12.816406 7.203125 C 12.632812 7.761719 12.5 8.5 12.5 9.453125 C 12.5 10.269531 12.613281 11.078125 12.816406 11.851562 C 13.304688 13.714844 14.347656 15.332031 15.691406 16.035156 Z M 15.691406 16.035156 "/>
<path style=" stroke:none;fill-rule:nonzero;fill:rgb(100%,38.431373%,0.392157%);fill-opacity:1;" d="M 23.519531 16.613281 C 25.105469 17.050781 26.65625 15.117188 27.597656 13.148438 C 28.035156 12.230469 28.339844 11.308594 28.453125 10.605469 C 28.652344 9.375 28.527344 7.027344 27.464844 6.101562 C 26.40625 5.183594 24.582031 5.460938 23.378906 6.175781 C 22.097656 6.929688 21.632812 7.890625 21.265625 10.390625 C 20.90625 12.890625 21.203125 15.96875 23.519531 16.613281 Z M 23.519531 16.613281 "/>
<path style=" stroke:none;fill-rule:nonzero;fill:rgb(100%,38.431373%,0.392157%);fill-opacity:1;" d="M 29.984375 15.753906 C 29.984375 15.753906 28.574219 16.75 27.605469 18.195312 C 27.152344 18.871094 26.789062 19.65625 26.71875 20.480469 C 26.578125 22.113281 26.847656 23.402344 27.605469 24.121094 C 28.042969 24.542969 28.636719 24.765625 29.410156 24.765625 C 31.519531 24.765625 34.203125 21.761719 34.203125 18.96875 C 34.191406 16.183594 32.667969 14.035156 29.984375 15.753906 Z M 29.984375 15.753906 "/>
<path style=" stroke:none;fill-rule:nonzero;fill:rgb(100%,38.431373%,0.392157%);fill-opacity:1;" d="M 12.804688 21.589844 C 13.144531 20.933594 13.207031 19.988281 13 18.613281 C 12.953125 18.324219 12.886719 18.046875 12.804688 17.773438 C 12.074219 15.390625 9.898438 13.445312 8.292969 13.425781 C 6.097656 13.402344 5.238281 16.964844 6.109375 19.113281 C 6.980469 21.261719 8.652344 23.195312 10.679688 22.835938 C 11.734375 22.652344 12.441406 22.292969 12.804688 21.589844 Z M 12.804688 21.589844 "/>
<path style=" stroke:none;fill-rule:nonzero;fill:rgb(100%,38.431373%,0.392157%);fill-opacity:1;" d="M 27.597656 27.011719 C 26.179688 24.097656 23.738281 21.355469 22.648438 20.402344 C 21.34375 19.257812 18.523438 19.425781 16.738281 20.25 C 14.972656 21.066406 15.035156 22.222656 12.804688 24.914062 C 11.960938 25.9375 11.210938 27.035156 10.75 28.136719 C 9.320312 31.574219 9.730469 32.167969 11.070312 33.222656 C 12.078125 34.011719 15.027344 32.890625 15.324219 32.832031 C 17.429688 32.402344 19.085938 30.78125 22.570312 32.148438 C 24.558594 32.921875 26.957031 33.191406 28.066406 32.339844 C 28.894531 31.703125 28.773438 30.292969 28.3125 28.78125 C 28.128906 28.195312 27.886719 27.601562 27.597656 27.011719 Z M 27.597656 27.011719 "/>
</g>
</svg>
